<?xml version="1.0" encoding="UTF-8"?>
<svg xmlns="http://www.w3.org/2000/svg" xmlns:xlink="http://www.w3.org/1999/xlink" width="0px" height="0px" viewBox="0 0 180 180" version="1.1">
<defs>
<linearGradient id="linear0" gradientUnits="userSpaceOnUse" x1="-838.041" y1="660.581" x2="-838.041" y2="660.3427" gradientTransform="matrix(749.68763,0,0,-749.68763,628358.933778,495229.404415)">
<stop offset="0" style="stop-color:rgb(16.470588%,67.058824%,93.333333%);stop-opacity:1;"/>
<stop offset="1" style="stop-color:rgb(13.333333%,61.960784%,85.098039%);stop-opacity:1;"/>
</linearGradient>
</defs>
<g id="surface1">
<path style=" stroke:none;fill-rule:evenodd;fill:url(#linear0);" d="M 180.074219 90.039062 C 180.074219 139.765625 139.765625 180.074219 90.039062 180.074219 C 40.3125 180.074219 0 139.765625 0 90.039062 C 0 40.3125 40.3125 0 90.039062 0 C 139.765625 0 180.074219 40.3125 180.074219 90.039062 Z M 180.074219 90.039062 "/>
<path style=" stroke:none;fill-rule:evenodd;fill:rgb(100%,100%,100%);fill-opacity:1;" d="M 40.707031 89.0625 C 66.945312 77.667969 84.414062 70.097656 93.1875 66.421875 C 118.152344 56 123.398438 54.203125 126.773438 54.128906 C 127.523438 54.128906 129.171875 54.277344 130.296875 55.175781 C 131.195312 55.925781 131.421875 56.902344 131.570312 57.652344 C 131.71875 58.402344 131.871094 59.976562 131.71875 61.175781 C 130.371094 75.417969 124.523438 109.980469 121.523438 125.871094 C 120.25 132.621094 117.777344 134.867188 115.375 135.09375 C 110.128906 135.542969 106.15625 131.644531 101.132812 128.347656 C 93.1875 123.171875 88.761719 119.949219 81.042969 114.851562 C 72.121094 109.003906 77.890625 105.78125 82.992188 100.53125 C 84.339844 99.183594 107.355469 78.191406 107.804688 76.316406 C 107.878906 76.09375 107.878906 75.195312 107.355469 74.742188 C 106.832031 74.292969 106.082031 74.445312 105.480469 74.59375 C 104.65625 74.742188 92.0625 83.140625 67.546875 99.707031 C 63.949219 102.183594 60.726562 103.382812 57.800781 103.308594 C 54.578125 103.230469 48.429688 101.507812 43.78125 100.007812 C 38.160156 98.210938 33.660156 97.234375 34.035156 94.085938 C 34.261719 92.4375 36.511719 90.789062 40.707031 89.0625 Z M 40.707031 89.0625 "/>
</g>
</svg>
