<?xml version="1.0" encoding="utf-8"?>
<!-- Generator: Adobe Illustrator 24.2.1, SVG Export Plug-In . SVG Version: 6.00 Build 0)  -->
<svg version="1.1" id="Layer_1" xmlns="http://www.w3.org/2000/svg" xmlns:xlink="http://www.w3.org/1999/xlink" x="0px" y="0px"
	 viewBox="0 0 128 128" style="enable-background:new 0 0 128 128;" xml:space="preserve">
<style type="text/css">
	.st0{fill:url(#SVGID_1_);}
	.st1{fill:#FFFFFF;}
</style>
<g>
	
		<linearGradient id="SVGID_1_" gradientUnits="userSpaceOnUse" x1="-9.4219" y1="139.9219" x2="-9.4219" y2="138.9293" gradientTransform="matrix(128 0 0 -128 1270 17910)">
		<stop  offset="0" style="stop-color:#2AABEE"/>
		<stop  offset="1" style="stop-color:#229ED9"/>
	</linearGradient>
	<circle class="st0" cx="64" cy="64" r="64"/>
	<path class="st1" d="M29,63.3c18.7-8.1,31.1-13.5,37.3-16.1c17.8-7.4,21.5-8.7,23.9-8.7c0.5,0,1.7,0.1,2.5,0.7
		c0.6,0.5,0.8,1.2,0.9,1.7c0.1,0.5,0.2,1.6,0.1,2.5c-1,10.1-5.1,34.7-7.3,46c-0.9,4.8-2.7,6.4-4.4,6.6c-3.7,0.3-6.5-2.5-10.1-4.8
		c-5.6-3.7-8.8-6-14.3-9.6c-6.3-4.2-2.2-6.5,1.4-10.2c0.9-1,17.3-15.9,17.6-17.2c0-0.2,0.1-0.8-0.3-1.1C76,52.8,75.4,52.9,75,53
		c-0.6,0.1-9.6,6.1-27,17.8c-2.6,1.8-4.9,2.6-6.9,2.6c-2.3,0-6.7-1.3-9.9-2.4c-4-1.3-7.2-2-6.9-4.2C24.4,65.7,25.9,64.5,29,63.3z"/>
</g>
</svg>
